<svg viewBox="0 0 400 400" xmlns="http://www.w3.org/2000/svg">
  <defs>
    <linearGradient id="logoGradient" x1="0%" y1="0%" x2="100%" y2="100%">
      <stop offset="0%" style="stop-color:#c53d8f;stop-opacity:1" />
      <stop offset="100%" style="stop-color:#9333ea;stop-opacity:1" />
    </linearGradient>
  </defs>
  
  <!-- Background circle -->
  <circle cx="200" cy="200" r="180" fill="url(#logoGradient)"/>
  
  <!-- Lotus petals -->
  <g fill="none" stroke="white" stroke-width="8" stroke-linecap="round" stroke-linejoin="round">
    <!-- Center petal -->
    <path d="M 200 80 Q 160 120 140 180 Q 160 240 200 280 Q 240 240 260 180 Q 240 120 200 80 Z" fill="rgba(255,255,255,0.1)"/>
    
    <!-- Left petal -->
    <path d="M 120 140 Q 80 160 60 200 Q 80 280 140 320 Q 180 280 200 240 Q 180 180 160 160 Q 140 140 120 140 Z" fill="rgba(255,255,255,0.1)"/>
    
    <!-- Right petal -->
    <path d="M 280 140 Q 320 160 340 200 Q 320 280 260 320 Q 220 280 200 240 Q 220 180 240 160 Q 260 140 280 140 Z" fill="rgba(255,255,255,0.1)"/>
    
    <!-- Inner curves -->
    <path d="M 200 120 Q 180 140 170 170" stroke="rgba(255,255,255,0.6)" stroke-width="4"/>
    <path d="M 200 120 Q 220 140 230 170" stroke="rgba(255,255,255,0.6)" stroke-width="4"/>
    <path d="M 150 200 Q 170 180 200 190" stroke="rgba(255,255,255,0.4)" stroke-width="3"/>
    <path d="M 250 200 Q 230 180 200 190" stroke="rgba(255,255,255,0.4)" stroke-width="3"/>
  </g>
  
  <!-- Center highlight -->
  <circle cx="200" cy="200" r="12" fill="white" opacity="0.8"/>
</svg> 